<?xml version="1.0"?>
<svg xmlns="http://www.w3.org/2000/svg" xmlns:xlink="http://www.w3.org/1999/xlink" width="1080" zoomAndPan="magnify" viewBox="0 0 810 809.999993" height="1080" preserveAspectRatio="xMidYMid meet" version="1.2" style="background-color:transparent;">
  <defs>
    <clipPath id="445d992683">
      <path d="M 237 256.324219 L 535 256.324219 L 535 437.78125 L 237 437.78125 Z M 237 256.324219 "/>
    </clipPath>
  </defs>
  <g id="ff8918243a">
    <rect x="0" width="810" y="0" height="809.999993" style="fill:none;fill-opacity:1;stroke:none;" fill="none"/>
    <rect x="0" width="810" y="0" height="809.999993" style="fill:none;fill-opacity:1;stroke:none;" fill="none"/>
    <g clip-rule="nonzero" clip-path="url(#445d992683)">
      <path style=" stroke:none;fill-rule:nonzero;fill:#5271ff;fill-opacity:1;" d="M 326.4375 437.78125 L 359.773438 391.898438 L 421.324219 391.898438 C 427.113281 391.898438 432.164062 392.046875 436.394531 392.417969 C 433.871094 389.226562 431.050781 385.140625 427.707031 380.242188 C 424.441406 375.339844 421.25 370.738281 418.203125 366.507812 L 386.277344 319.285156 L 302.457031 437.78125 L 237.042969 437.78125 L 351.53125 276.371094 C 355.246094 271.25 359.996094 266.570312 365.714844 262.488281 C 371.429688 258.402344 378.632812 256.324219 387.320312 256.324219 C 395.707031 256.324219 402.6875 258.253906 408.253906 262.042969 C 413.898438 265.902344 418.648438 270.65625 422.511719 276.296875 L 534.101562 437.78125 Z M 326.4375 437.78125 "/>
    </g>
    <path style=" stroke:none;fill-rule:evenodd;fill:#000000;fill-opacity:1;" d="M 562.464844 372.445312 L 503.808594 372.445312 L 473.742188 328.9375 L 596.097656 328.9375 Z M 570.410156 305.699219 L 457.628906 305.699219 L 432.535156 269.390625 C 429.9375 265.679688 427.039062 262.265625 423.773438 259.292969 L 606.195312 259.292969 Z M 570.410156 305.699219 "/>
    <g style="fill:#5271ff;fill-opacity:1;">
      <g transform="translate(137.018749, 529.755988)">
        <path style="stroke:none" d="M 17.796875 -18.59375 L 30.328125 -18.59375 L 24.203125 -38.03125 L 24.078125 -38.03125 Z M 11.65625 0 L 0.828125 0 L 18.328125 -49.09375 L 30.1875 -49.09375 L 47.484375 0 L 36.328125 0 L 33.1875 -10.125 L 15.0625 -10.125 Z M 11.65625 0 "/>
      </g>
    </g>
    <g style="fill:#5271ff;fill-opacity:1;">
      <g transform="translate(181.918807, 529.755988)">
        <path style="stroke:none" d="M 15.0625 -8.484375 L 25.046875 -8.484375 C 28.566406 -8.484375 31.304688 -9.953125 33.265625 -12.890625 C 35.222656 -15.828125 36.203125 -19.859375 36.203125 -24.984375 C 36.203125 -30.253906 35.300781 -34.179688 33.5 -36.765625 C 31.695312 -39.347656 28.945312 -40.640625 25.25 -40.640625 L 15.0625 -40.640625 Z M 5.015625 -49.09375 L 26.6875 -49.09375 C 33.320312 -49.09375 38.304688 -46.9375 41.640625 -42.625 C 44.984375 -38.320312 46.65625 -32.6875 46.65625 -25.71875 C 46.65625 -18.007812 44.878906 -11.796875 41.328125 -7.078125 C 37.773438 -2.359375 32.757812 0 26.28125 0 L 5.015625 0 Z M 5.015625 -49.09375 "/>
      </g>
    </g>
    <g style="fill:#5271ff;fill-opacity:1;">
      <g transform="translate(228.15458, 529.755988)">
        <path style="stroke:none" d="M 33.265625 -49.09375 L 43.90625 -49.09375 L 27.21875 0 L 17.46875 0 L 0.90625 -49.09375 L 11.921875 -49.09375 L 22.4375 -11.890625 L 22.578125 -11.890625 Z M 33.265625 -49.09375 "/>
      </g>
    </g>
    <g style="fill:#5271ff;fill-opacity:1;">
      <g transform="translate(269.4816, 529.755988)">
        <path style="stroke:none" d="M 17.796875 -18.59375 L 30.328125 -18.59375 L 24.203125 -38.03125 L 24.078125 -38.03125 Z M 11.65625 0 L 0.828125 0 L 18.328125 -49.09375 L 30.1875 -49.09375 L 47.484375 0 L 36.328125 0 L 33.1875 -10.125 L 15.0625 -10.125 Z M 11.65625 0 "/>
      </g>
    </g>
    <g style="fill:#5271ff;fill-opacity:1;">
      <g transform="translate(314.381657, 529.755988)">
        <path style="stroke:none" d="M 35.46875 -49.09375 L 45.015625 -49.09375 L 45.015625 0 L 34.765625 0 L 14.734375 -35.03125 L 14.59375 -35.03125 L 14.59375 0 L 5.015625 0 L 5.015625 -49.09375 L 15.828125 -49.09375 L 35.328125 -14.890625 L 35.46875 -14.890625 Z M 35.46875 -49.09375 "/>
      </g>
    </g>
    <g style="fill:#5271ff;fill-opacity:1;">
      <g transform="translate(360.984749, 529.755988)">
        <path style="stroke:none" d="M 36.53125 -33.03125 C 35.257812 -38.6875 31.628906 -41.515625 25.640625 -41.515625 C 21.921875 -41.515625 18.957031 -40 16.75 -36.96875 C 14.550781 -33.9375 13.453125 -29.726562 13.453125 -24.34375 C 13.453125 -19.289062 14.519531 -15.234375 16.65625 -12.171875 C 18.800781 -9.109375 21.796875 -7.578125 25.640625 -7.578125 C 31.523438 -7.578125 35.15625 -10.660156 36.53125 -16.828125 L 46.78125 -16.828125 C 46.050781 -11.796875 43.847656 -7.515625 40.171875 -3.984375 C 36.492188 -0.460938 31.585938 1.296875 25.453125 1.296875 C 18.585938 1.296875 13.128906 -0.960938 9.078125 -5.484375 C 5.023438 -10.015625 3 -16.347656 3 -24.484375 C 3 -32.242188 5.015625 -38.5 9.046875 -43.25 C 13.078125 -48.007812 18.585938 -50.390625 25.578125 -50.390625 C 31.703125 -50.390625 36.648438 -48.734375 40.421875 -45.421875 C 44.191406 -42.117188 46.3125 -37.988281 46.78125 -33.03125 Z M 36.53125 -33.03125 "/>
      </g>
    </g>
    <g style="fill:#5271ff;fill-opacity:1;">
      <g transform="translate(407.020157, 529.755988)">
        <path style="stroke:none" d="M 41.109375 -40.40625 L 15.0625 -40.40625 L 15.0625 -30.09375 L 39 -30.09375 L 39 -21.40625 L 15.0625 -21.40625 L 15.0625 -8.6875 L 42.28125 -8.6875 L 42.28125 0 L 5.015625 0 L 5.015625 -49.09375 L 41.109375 -49.09375 Z M 41.109375 -40.40625 "/>
      </g>
    </g>
    <g style="fill:#5271ff;fill-opacity:1;">
      <g transform="translate(448.881483, 529.755988)">
        <path style="stroke:none" d=""/>
      </g>
    </g>
    <g style="fill:#5271ff;fill-opacity:1;">
      <g transform="translate(463.828131, 529.755988)">
        <path style="stroke:none" d="M 15.265625 0 L 5.015625 0 L 5.015625 -49.09375 L 39.9375 -49.09375 L 39.9375 -40.40625 L 15.265625 -40.40625 L 15.265625 -29.359375 L 36.859375 -29.359375 L 36.859375 -20.640625 L 15.265625 -20.640625 Z M 15.265625 0 "/>
      </g>
    </g>
    <g style="fill:#5271ff;fill-opacity:1;">
      <g transform="translate(501.849249, 529.755988)">
        <path style="stroke:none" d="M 13.09375 -24.546875 C 13.09375 -18.847656 14.359375 -14.5625 16.890625 -11.6875 C 19.429688 -8.8125 22.648438 -7.375 26.546875 -7.375 C 30.441406 -7.375 33.617188 -8.851562 36.078125 -11.8125 C 38.535156 -14.78125 39.765625 -19.023438 39.765625 -24.546875 C 39.765625 -30.066406 38.546875 -34.304688 36.109375 -37.265625 C 33.671875 -40.222656 30.441406 -41.703125 26.421875 -41.703125 C 22.390625 -41.703125 19.160156 -40.226562 16.734375 -37.28125 C 14.304688 -34.332031 13.09375 -30.085938 13.09375 -24.546875 Z M 2.84375 -24.546875 C 2.84375 -32.960938 5.035156 -39.375 9.421875 -43.78125 C 13.804688 -48.1875 19.445312 -50.390625 26.34375 -50.390625 C 33.25 -50.390625 38.921875 -48.210938 43.359375 -43.859375 C 47.804688 -39.503906 50.03125 -33.066406 50.03125 -24.546875 C 50.03125 -16.222656 47.847656 -9.832031 43.484375 -5.375 C 39.117188 -0.925781 33.441406 1.296875 26.453125 1.296875 C 19.796875 1.296875 14.195312 -0.8125 9.65625 -5.03125 C 5.113281 -9.25 2.84375 -15.753906 2.84375 -24.546875 Z M 2.84375 -24.546875 "/>
      </g>
    </g>
    <g style="fill:#5271ff;fill-opacity:1;">
      <g transform="translate(551.290747, 529.755988)">
        <path style="stroke:none" d="M 27.078125 -27.484375 C 29.773438 -27.484375 31.773438 -27.992188 33.078125 -29.015625 C 34.378906 -30.046875 35.03125 -31.773438 35.03125 -34.203125 C 35.03125 -36.203125 34.421875 -37.773438 33.203125 -38.921875 C 31.992188 -40.066406 30.207031 -40.640625 27.84375 -40.640625 L 15.0625 -40.640625 L 15.0625 -27.484375 Z M 5.015625 -49.09375 L 29.828125 -49.09375 C 34.878906 -49.09375 38.71875 -47.738281 41.34375 -45.03125 C 43.96875 -42.320312 45.28125 -39.054688 45.28125 -35.234375 C 45.28125 -29.535156 42.753906 -25.640625 37.703125 -23.546875 C 40.035156 -22.648438 41.648438 -21.363281 42.546875 -19.6875 C 43.453125 -18.007812 43.90625 -14.972656 43.90625 -10.578125 C 43.90625 -6.222656 44.066406 -3.660156 44.390625 -2.890625 C 44.710938 -2.117188 45.273438 -1.585938 46.078125 -1.296875 L 46.078125 0 L 34.765625 0 C 34.023438 -2.207031 33.65625 -5.390625 33.65625 -9.546875 C 33.65625 -13.046875 33.421875 -15.300781 32.953125 -16.3125 C 32.492188 -17.320312 31.722656 -18.054688 30.640625 -18.515625 C 29.554688 -18.972656 27.890625 -19.203125 25.640625 -19.203125 L 15.0625 -19.203125 L 15.0625 0 L 5.015625 0 Z M 5.015625 -49.09375 "/>
      </g>
    </g>
    <g style="fill:#5271ff;fill-opacity:1;">
      <g transform="translate(596.457947, 529.755988)">
        <path style="stroke:none" d="M 26.078125 0 L 15.828125 0 L 15.828125 -40.40625 L 1 -40.40625 L 1 -49.09375 L 40.9375 -49.09375 L 40.9375 -40.40625 L 26.078125 -40.40625 Z M 26.078125 0 "/>
      </g>
    </g>
    <g style="fill:#5271ff;fill-opacity:1;">
      <g transform="translate(634.979958, 529.755988)">
        <path style="stroke:none" d="M 41.109375 -40.40625 L 15.0625 -40.40625 L 15.0625 -30.09375 L 39 -30.09375 L 39 -21.40625 L 15.0625 -21.40625 L 15.0625 -8.6875 L 42.28125 -8.6875 L 42.28125 0 L 5.015625 0 L 5.015625 -49.09375 L 41.109375 -49.09375 Z M 41.109375 -40.40625 "/>
      </g>
    </g>
    <g style="fill:#000000;fill-opacity:1;">
      <g transform="translate(106.902418, 577.075275)">
        <path style="stroke:none" d="M 23.0625 -31.921875 L 29.265625 -31.921875 L 29.265625 0 L 22.609375 0 L 9.578125 -22.78125 L 9.484375 -22.78125 L 9.484375 0 L 3.25 0 L 3.25 -31.921875 L 10.296875 -31.921875 L 22.96875 -9.6875 L 23.0625 -9.6875 Z M 23.0625 -31.921875 "/>
      </g>
    </g>
    <g style="fill:#000000;fill-opacity:1;">
      <g transform="translate(137.199786, 577.075275)">
        <path style="stroke:none" d="M 26.734375 -26.265625 L 9.796875 -26.265625 L 9.796875 -19.5625 L 25.359375 -19.5625 L 25.359375 -13.921875 L 9.796875 -13.921875 L 9.796875 -5.640625 L 27.484375 -5.640625 L 27.484375 0 L 3.25 0 L 3.25 -31.921875 L 26.734375 -31.921875 Z M 26.734375 -26.265625 "/>
      </g>
    </g>
    <g style="fill:#000000;fill-opacity:1;">
      <g transform="translate(164.414437, 577.075275)">
        <path style="stroke:none" d="M 26.734375 -26.265625 L 9.796875 -26.265625 L 9.796875 -19.5625 L 25.359375 -19.5625 L 25.359375 -13.921875 L 9.796875 -13.921875 L 9.796875 -5.640625 L 27.484375 -5.640625 L 27.484375 0 L 3.25 0 L 3.25 -31.921875 L 26.734375 -31.921875 Z M 26.734375 -26.265625 "/>
      </g>
    </g>
    <g style="fill:#000000;fill-opacity:1;">
      <g transform="translate(191.629083, 577.075275)">
        <path style="stroke:none" d="M 16.953125 0 L 10.296875 0 L 10.296875 -26.265625 L 0.65625 -26.265625 L 0.65625 -31.921875 L 26.625 -31.921875 L 26.625 -26.265625 L 16.953125 -26.265625 Z M 16.953125 0 "/>
      </g>
    </g>
    <g style="fill:#000000;fill-opacity:1;">
      <g transform="translate(216.672805, 577.075275)">
        <path style="stroke:none" d=""/>
      </g>
    </g>
    <g style="fill:#f73536;fill-opacity:1;">
      <g transform="translate(226.392543, 577.075275)">
        <path style="stroke:none" d="M 3.90625 -32.765625 L 8.875 -32.765625 L 8.875 0.84375 L 3.90625 0.84375 Z M 3.90625 -32.765625 "/>
      </g>
    </g>
    <g style="fill:#000000;fill-opacity:1;">
      <g transform="translate(236.957159, 577.075275)">
        <path style="stroke:none" d=""/>
      </g>
    </g>
    <g style="fill:#000000;fill-opacity:1;">
      <g transform="translate(246.674119, 577.075275)">
        <path style="stroke:none" d="M 9.921875 0 L 3.25 0 L 3.25 -31.921875 L 9.921875 -31.921875 Z M 9.921875 0 "/>
      </g>
    </g>
    <g style="fill:#000000;fill-opacity:1;">
      <g transform="translate(257.628511, 577.075275)">
        <path style="stroke:none" d="M 9.921875 0 L 3.25 0 L 3.25 -31.921875 L 9.921875 -31.921875 Z M 9.921875 0 "/>
      </g>
    </g>
    <g style="fill:#000000;fill-opacity:1;">
      <g transform="translate(268.582903, 577.075275)">
        <path style="stroke:none" d="M 16.953125 0 L 10.296875 0 L 10.296875 -26.265625 L 0.65625 -26.265625 L 0.65625 -31.921875 L 26.625 -31.921875 L 26.625 -26.265625 L 16.953125 -26.265625 Z M 16.953125 0 "/>
      </g>
    </g>
    <g style="fill:#000000;fill-opacity:1;">
      <g transform="translate(293.626625, 577.075275)">
        <path style="stroke:none" d=""/>
      </g>
    </g>
    <g style="fill:#000000;fill-opacity:1;">
      <g transform="translate(303.343586, 577.075275)">
        <path style="stroke:none" d="M 13.609375 -9.546875 L 1.1875 -9.546875 L 1.1875 -15.34375 L 13.609375 -15.34375 Z M 13.609375 -9.546875 "/>
      </g>
    </g>
    <g style="fill:#000000;fill-opacity:1;">
      <g transform="translate(315.926166, 577.075275)">
        <path style="stroke:none" d=""/>
      </g>
    </g>
    <g style="fill:#000000;fill-opacity:1;">
      <g transform="translate(325.643127, 577.075275)">
        <path style="stroke:none" d="M 21.40625 -9.25 C 21.40625 -5.875 20.550781 -3.351562 18.84375 -1.6875 C 17.132812 -0.03125 14.691406 0.796875 11.515625 0.796875 C 7.773438 0.796875 5.0625 -0.0390625 3.375 -1.71875 C 1.6875 -3.394531 0.851562 -6.109375 0.875 -9.859375 L 0.875 -12.046875 L 7.09375 -12.046875 L 7.09375 -11.40625 C 7.09375 -8.601562 7.390625 -6.765625 7.984375 -5.890625 C 8.578125 -5.015625 9.585938 -4.578125 11.015625 -4.578125 C 12.335938 -4.578125 13.289062 -4.898438 13.875 -5.546875 C 14.457031 -6.203125 14.75 -7.363281 14.75 -9.03125 L 14.75 -31.921875 L 21.40625 -31.921875 Z M 21.40625 -9.25 "/>
      </g>
    </g>
    <g style="fill:#000000;fill-opacity:1;">
      <g transform="translate(347.864638, 577.075275)">
        <path style="stroke:none" d="M 26.734375 -26.265625 L 9.796875 -26.265625 L 9.796875 -19.5625 L 25.359375 -19.5625 L 25.359375 -13.921875 L 9.796875 -13.921875 L 9.796875 -5.640625 L 27.484375 -5.640625 L 27.484375 0 L 3.25 0 L 3.25 -31.921875 L 26.734375 -31.921875 Z M 26.734375 -26.265625 "/>
      </g>
    </g>
    <g style="fill:#000000;fill-opacity:1;">
      <g transform="translate(375.079296, 577.075275)">
        <path style="stroke:none" d="M 26.734375 -26.265625 L 9.796875 -26.265625 L 9.796875 -19.5625 L 25.359375 -19.5625 L 25.359375 -13.921875 L 9.796875 -13.921875 L 9.796875 -5.640625 L 27.484375 -5.640625 L 27.484375 0 L 3.25 0 L 3.25 -31.921875 L 26.734375 -31.921875 Z M 26.734375 -26.265625 "/>
      </g>
    </g>
    <g style="fill:#000000;fill-opacity:1;">
      <g transform="translate(402.293942, 577.075275)">
        <path style="stroke:none" d=""/>
      </g>
    </g>
    <g style="fill:#f73536;fill-opacity:1;">
      <g transform="translate(412.011114, 577.075275)">
        <path style="stroke:none" d="M 3.90625 -32.765625 L 8.875 -32.765625 L 8.875 0.84375 L 3.90625 0.84375 Z M 3.90625 -32.765625 "/>
      </g>
    </g>
    <g style="fill:#000000;fill-opacity:1;">
      <g transform="translate(422.575731, 577.075275)">
        <path style="stroke:none" d=""/>
      </g>
    </g>
    <g style="fill:#000000;fill-opacity:1;">
      <g transform="translate(432.292691, 577.075275)">
        <path style="stroke:none" d="M 9.921875 0 L 3.25 0 L 3.25 -31.921875 L 25.96875 -31.921875 L 25.96875 -26.265625 L 9.921875 -26.265625 L 9.921875 -19.09375 L 23.96875 -19.09375 L 23.96875 -13.421875 L 9.921875 -13.421875 Z M 9.921875 0 "/>
      </g>
    </g>
    <g style="fill:#000000;fill-opacity:1;">
      <g transform="translate(457.010773, 577.075275)">
        <path style="stroke:none" d="M 8.515625 -15.953125 C 8.515625 -12.253906 9.335938 -9.46875 10.984375 -7.59375 C 12.640625 -5.726562 14.734375 -4.796875 17.265625 -4.796875 C 19.796875 -4.796875 21.859375 -5.757812 23.453125 -7.6875 C 25.054688 -9.613281 25.859375 -12.367188 25.859375 -15.953125 C 25.859375 -19.546875 25.066406 -22.304688 23.484375 -24.234375 C 21.898438 -26.160156 19.796875 -27.125 17.171875 -27.125 C 14.554688 -27.125 12.457031 -26.160156 10.875 -24.234375 C 9.300781 -22.316406 8.515625 -19.554688 8.515625 -15.953125 Z M 1.84375 -15.953125 C 1.84375 -21.429688 3.269531 -25.601562 6.125 -28.46875 C 8.976562 -31.332031 12.644531 -32.765625 17.125 -32.765625 C 21.613281 -32.765625 25.300781 -31.347656 28.1875 -28.515625 C 31.082031 -25.691406 32.53125 -21.503906 32.53125 -15.953125 C 32.53125 -10.546875 31.109375 -6.394531 28.265625 -3.5 C 25.429688 -0.601562 21.742188 0.84375 17.203125 0.84375 C 12.867188 0.84375 9.222656 -0.523438 6.265625 -3.265625 C 3.316406 -6.003906 1.84375 -10.234375 1.84375 -15.953125 Z M 1.84375 -15.953125 "/>
      </g>
    </g>
    <g style="fill:#000000;fill-opacity:1;">
      <g transform="translate(489.153434, 577.075275)">
        <path style="stroke:none" d="M 28.90625 -11.15625 C 28.90625 -7.238281 27.8125 -4.257812 25.625 -2.21875 C 23.445312 -0.175781 20.164062 0.84375 15.78125 0.84375 C 11.9375 0.84375 8.867188 -0.132812 6.578125 -2.09375 C 4.285156 -4.050781 3.140625 -6.957031 3.140625 -10.8125 L 3.140625 -31.921875 L 9.96875 -31.921875 L 9.96875 -11.203125 C 9.96875 -9.117188 10.476562 -7.53125 11.5 -6.4375 C 12.53125 -5.34375 14.007812 -4.796875 15.9375 -4.796875 C 17.875 -4.796875 19.382812 -5.300781 20.46875 -6.3125 C 21.5625 -7.332031 22.109375 -8.863281 22.109375 -10.90625 L 22.109375 -31.921875 L 28.90625 -31.921875 Z M 28.90625 -11.15625 "/>
      </g>
    </g>
    <g style="fill:#000000;fill-opacity:1;">
      <g transform="translate(518.973194, 577.075275)">
        <path style="stroke:none" d="M 23.0625 -31.921875 L 29.265625 -31.921875 L 29.265625 0 L 22.609375 0 L 9.578125 -22.78125 L 9.484375 -22.78125 L 9.484375 0 L 3.25 0 L 3.25 -31.921875 L 10.296875 -31.921875 L 22.96875 -9.6875 L 23.0625 -9.6875 Z M 23.0625 -31.921875 "/>
      </g>
    </g>
    <g style="fill:#000000;fill-opacity:1;">
      <g transform="translate(549.270568, 577.075275)">
        <path style="stroke:none" d="M 9.796875 -5.515625 L 16.28125 -5.515625 C 18.570312 -5.515625 20.351562 -6.46875 21.625 -8.375 C 22.894531 -10.289062 23.53125 -12.910156 23.53125 -16.234375 C 23.53125 -19.671875 22.941406 -22.226562 21.765625 -23.90625 C 20.597656 -25.582031 18.816406 -26.421875 16.421875 -26.421875 L 9.796875 -26.421875 Z M 3.25 -31.921875 L 17.34375 -31.921875 C 21.65625 -31.921875 24.894531 -30.519531 27.0625 -27.71875 C 29.238281 -24.914062 30.328125 -21.25 30.328125 -16.71875 C 30.328125 -11.707031 29.171875 -7.664062 26.859375 -4.59375 C 24.554688 -1.53125 21.300781 0 17.09375 0 L 3.25 0 Z M 3.25 -31.921875 "/>
      </g>
    </g>
    <g style="fill:#000000;fill-opacity:1;">
      <g transform="translate(579.329135, 577.075275)">
        <path style="stroke:none" d="M 11.578125 -12.09375 L 19.71875 -12.09375 L 15.734375 -24.734375 L 15.65625 -24.734375 Z M 7.578125 0 L 0.546875 0 L 11.921875 -31.921875 L 19.625 -31.921875 L 30.875 0 L 23.625 0 L 21.578125 -6.578125 L 9.796875 -6.578125 Z M 7.578125 0 "/>
      </g>
    </g>
    <g style="fill:#000000;fill-opacity:1;">
      <g transform="translate(608.519318, 577.075275)">
        <path style="stroke:none" d="M 16.953125 0 L 10.296875 0 L 10.296875 -26.265625 L 0.65625 -26.265625 L 0.65625 -31.921875 L 26.625 -31.921875 L 26.625 -26.265625 L 16.953125 -26.265625 Z M 16.953125 0 "/>
      </g>
    </g>
    <g style="fill:#000000;fill-opacity:1;">
      <g transform="translate(633.563053, 577.075275)">
        <path style="stroke:none" d="M 9.921875 0 L 3.25 0 L 3.25 -31.921875 L 9.921875 -31.921875 Z M 9.921875 0 "/>
      </g>
    </g>
    <g style="fill:#000000;fill-opacity:1;">
      <g transform="translate(644.517444, 577.075275)">
        <path style="stroke:none" d="M 8.515625 -15.953125 C 8.515625 -12.253906 9.335938 -9.46875 10.984375 -7.59375 C 12.640625 -5.726562 14.734375 -4.796875 17.265625 -4.796875 C 19.796875 -4.796875 21.859375 -5.757812 23.453125 -7.6875 C 25.054688 -9.613281 25.859375 -12.367188 25.859375 -15.953125 C 25.859375 -19.546875 25.066406 -22.304688 23.484375 -24.234375 C 21.898438 -26.160156 19.796875 -27.125 17.171875 -27.125 C 14.554688 -27.125 12.457031 -26.160156 10.875 -24.234375 C 9.300781 -22.316406 8.515625 -19.554688 8.515625 -15.953125 Z M 1.84375 -15.953125 C 1.84375 -21.429688 3.269531 -25.601562 6.125 -28.46875 C 8.976562 -31.332031 12.644531 -32.765625 17.125 -32.765625 C 21.613281 -32.765625 25.300781 -31.347656 28.1875 -28.515625 C 31.082031 -25.691406 32.53125 -21.503906 32.53125 -15.953125 C 32.53125 -10.546875 31.109375 -6.394531 28.265625 -3.5 C 25.429688 -0.601562 21.742188 0.84375 17.203125 0.84375 C 12.867188 0.84375 9.222656 -0.523438 6.265625 -3.265625 C 3.316406 -6.003906 1.84375 -10.234375 1.84375 -15.953125 Z M 1.84375 -15.953125 "/>
      </g>
    </g>
    <g style="fill:#000000;fill-opacity:1;">
      <g transform="translate(676.660103, 577.075275)">
        <path style="stroke:none" d="M 23.0625 -31.921875 L 29.265625 -31.921875 L 29.265625 0 L 22.609375 0 L 9.578125 -22.78125 L 9.484375 -22.78125 L 9.484375 0 L 3.25 0 L 3.25 -31.921875 L 10.296875 -31.921875 L 22.96875 -9.6875 L 23.0625 -9.6875 Z M 23.0625 -31.921875 "/>
      </g>
    </g>
  </g>
</svg>
